<?xml version="1.0" encoding="iso-8859-1"?>
<!-- Generator: Adobe Illustrator 19.0.0, SVG Export Plug-In . SVG Version: 6.00 Build 0)  -->
<svg version="1.1" id="Capa_1" xmlns="http://www.w3.org/2000/svg" xmlns:xlink="http://www.w3.org/1999/xlink" x="0px" y="0px"
	 viewBox="0 0 512 512" style="enable-background:new 0 0 512 512;" xml:space="preserve">
<g>
	<g>
		<g>
			<path d="M410.569,307.232C485.049,275.255,512,236.896,512,213.333c0-27.708-21.979-42.667-42.667-42.667
				c-16.292,0-30.167,6.081-42.796,14.201c0.007-1.221,0.129-2.305,0.129-3.534c0-5.896-4.771-10.667-10.667-10.667H53.333
				c-5.896,0-10.667,4.771-10.667,10.667c0,105.268,25.318,180.216,74.914,224H10.667C4.771,405.333,0,410.104,0,416
				c0,29.406,23.927,53.333,53.333,53.333H416c29.406,0,53.333-23.927,53.333-53.333c0-5.896-4.771-10.667-10.667-10.667H351.753
				C378.517,381.704,398.167,348.953,410.569,307.232z M425.557,211.814C439.366,201.111,453.27,192,469.333,192
				c7.927,0,21.333,4.49,21.333,21.333c0,9.59-13.964,38.785-73.738,67.686C421.376,259.866,424.284,236.829,425.557,211.814z
				 M180.563,384.208c-1.969,3.448-5.573,5.385-9.281,5.385c-1.792,0-3.604-0.448-5.271-1.396
				c-34.198-19.479-57.885-55.948-70.396-108.396c-1.365-5.729,2.167-11.49,7.896-12.854c5.781-1.292,11.49,2.177,12.854,7.896
				c11.083,46.479,31.344,78.375,60.208,94.813C181.688,372.573,183.479,379.083,180.563,384.208z"/>
			<path d="M224,138.667c0,5.896,4.771,10.667,10.667,10.667c5.896,0,10.667-4.771,10.667-10.667c0-6,2.313-8.563,7.542-13.792
				c5.823-5.823,13.792-13.792,13.792-28.875s-7.969-23.052-13.792-28.875c-5.229-5.229-7.542-7.792-7.542-13.792
				c0-5.896-4.771-10.667-10.667-10.667c-5.896,0-10.667,4.771-10.667,10.667c0,15.083,7.969,23.052,13.792,28.875
				c5.229,5.229,7.542,7.792,7.542,13.792s-2.313,8.563-7.542,13.792C231.969,115.615,224,123.583,224,138.667z"/>
			<path d="M128,138.667c0,5.896,4.771,10.667,10.667,10.667c5.896,0,10.667-4.771,10.667-10.667c0-6,2.313-8.563,7.542-13.792
				c5.823-5.823,13.792-13.792,13.792-28.875s-7.969-23.052-13.792-28.875c-5.229-5.229-7.542-7.792-7.542-13.792
				c0-5.896-4.771-10.667-10.667-10.667c-5.896,0-10.667,4.771-10.667,10.667c0,15.083,7.969,23.052,13.792,28.875
				c5.229,5.229,7.542,7.792,7.542,13.792s-2.313,8.563-7.542,13.792C135.969,115.615,128,123.583,128,138.667z"/>
			<path d="M320,138.667c0,5.896,4.771,10.667,10.667,10.667c5.896,0,10.667-4.771,10.667-10.667c0-6,2.313-8.563,7.542-13.792
				c5.823-5.823,13.792-13.792,13.792-28.875s-7.969-23.052-13.792-28.875c-5.229-5.229-7.542-7.792-7.542-13.792
				c0-5.896-4.771-10.667-10.667-10.667c-5.896,0-10.667,4.771-10.667,10.667c0,15.083,7.969,23.052,13.792,28.875
				c5.229,5.229,7.542,7.792,7.542,13.792s-2.313,8.563-7.542,13.792C327.969,115.615,320,123.583,320,138.667z"/>
		</g>
	</g>
</g>
<g>
</g>
<g>
</g>
<g>
</g>
<g>
</g>
<g>
</g>
<g>
</g>
<g>
</g>
<g>
</g>
<g>
</g>
<g>
</g>
<g>
</g>
<g>
</g>
<g>
</g>
<g>
</g>
<g>
</g>
</svg>
