<?xml version="1.0" encoding="utf-8"?>
<!-- Generator: Adobe Illustrator 13.0.2, SVG Export Plug-In . SVG Version: 6.00 Build 14948)  -->
<!DOCTYPE svg PUBLIC "-//W3C//DTD SVG 1.1//EN" "http://www.w3.org/Graphics/SVG/1.1/DTD/svg11.dtd">
<svg version="1.1" id="Ebene_1" xmlns="http://www.w3.org/2000/svg" xmlns:xlink="http://www.w3.org/1999/xlink" x="0px" y="0px"
	 width="169.471px" height="133.42px" viewBox="0 0 169.471 133.42" enable-background="new 0 0 169.471 133.42"
	 xml:space="preserve">
<g>
	<path d="M14.972,52.088v-17.18h2.332l9.022,13.488V34.908h2.18v17.18h-2.332l-9.022-13.5v13.5H14.972z"/>
</g>
<g>
	<path fill="#FF0000" d="M9.749,43.189H8.167V33.108c-0.381,0.363-0.88,0.727-1.499,1.09c-0.619,0.363-1.173,0.636-1.666,0.817
		v-1.529c0.886-0.416,1.658-0.92,2.32-1.512c0.662-0.592,1.131-1.166,1.406-1.723h1.02L9.749,43.189L9.749,43.189z"/>
</g>
<g>
	<path fill="#FF0000" d="M17.26,93.125v1.521H8.744c-0.012-0.381,0.05-0.746,0.186-1.099c0.217-0.58,0.563-1.151,1.042-1.714
		c0.478-0.563,1.167-1.213,2.069-1.951c1.4-1.148,2.348-2.059,2.839-2.729c0.492-0.672,0.738-1.307,0.738-1.903
		c0-0.627-0.224-1.155-0.672-1.587c-0.448-0.43-1.033-0.646-1.753-0.646c-0.762,0-1.371,0.229-1.828,0.687s-0.688,1.09-0.694,1.897
		l-1.626-0.166c0.111-1.213,0.53-2.138,1.257-2.773c0.728-0.635,1.702-0.953,2.928-0.953c1.235,0,2.215,0.343,2.936,1.027
		c0.722,0.686,1.081,1.535,1.081,2.55c0,0.516-0.104,1.022-0.315,1.521c-0.212,0.5-0.562,1.022-1.051,1.573
		c-0.488,0.552-1.302,1.308-2.438,2.269c-0.949,0.797-1.56,1.336-1.828,1.621c-0.271,0.283-0.492,0.569-0.668,0.856H17.26z"/>
</g>
<g>
	<path d="M49.316,111.646v-17.18h2.332l9.022,13.488V94.466h2.181v17.18h-2.332l-9.023-13.5v13.5H49.316z"/>
</g>
<g>
	<path fill="#FF0000" d="M51.9,124.788l1.582-0.211c0.182,0.896,0.491,1.543,0.927,1.938c0.438,0.396,0.968,0.594,1.595,0.594
		c0.744,0,1.373-0.258,1.886-0.772c0.512-0.515,0.769-1.153,0.769-1.916c0-0.728-0.237-1.326-0.712-1.797
		c-0.475-0.474-1.078-0.708-1.812-0.708c-0.299,0-0.671,0.059-1.115,0.176l0.176-1.389c0.104,0.012,0.189,0.018,0.255,0.018
		c0.674,0,1.28-0.176,1.819-0.527c0.539-0.351,0.809-0.894,0.809-1.625c0-0.58-0.196-1.062-0.589-1.441s-0.899-0.57-1.521-0.57
		c-0.614,0-1.128,0.192-1.537,0.579c-0.41,0.388-0.675,0.968-0.791,1.74l-1.582-0.281c0.192-1.061,0.633-1.882,1.317-2.466
		c0.687-0.582,1.538-0.874,2.559-0.874c0.702,0,1.351,0.151,1.941,0.452c0.592,0.303,1.044,0.714,1.358,1.234
		c0.313,0.521,0.47,1.076,0.47,1.662c0,0.557-0.148,1.063-0.448,1.521c-0.299,0.458-0.74,0.819-1.326,1.09
		c0.762,0.177,1.354,0.54,1.774,1.095c0.422,0.553,0.633,1.246,0.633,2.078c0,1.125-0.41,2.078-1.229,2.861
		c-0.82,0.781-1.857,1.173-3.111,1.173c-1.131,0-2.07-0.337-2.816-1.011C52.431,126.735,52.005,125.86,51.9,124.788z"/>
</g>
<g>
	<path fill="#FF0000" d="M91.962,101.247v-3.085h-5.59v-1.45l5.881-8.35h1.291v8.35h1.74v1.45h-1.74v3.085H91.962z M91.962,96.712
		v-5.811l-4.032,5.811H91.962z"/>
</g>
<g>
	<path fill="#FF0000" d="M86.54,33.018l1.66-0.141c0.123,0.809,0.409,1.417,0.857,1.824c0.447,0.407,0.987,0.611,1.621,0.611
		c0.762,0,1.405-0.287,1.934-0.861c0.528-0.574,0.791-1.336,0.791-2.285c0-0.902-0.253-1.614-0.76-2.136
		c-0.507-0.522-1.17-0.782-1.99-0.782c-0.51,0-0.971,0.116-1.381,0.347s-0.732,0.532-0.967,0.901l-1.484-0.193l1.248-6.618h6.406
		v1.512h-5.142l-0.694,3.463c0.772-0.539,1.586-0.809,2.436-0.809c1.125,0,2.074,0.39,2.848,1.169
		c0.774,0.779,1.16,1.781,1.16,3.006c0,1.166-0.34,2.174-1.02,3.023c-0.826,1.043-1.955,1.564-3.385,1.564
		c-1.173,0-2.129-0.328-2.869-0.984C87.068,34.973,86.646,34.102,86.54,33.018z"/>
</g>
<g>
	<path fill="#FF0000" d="M60.056,8.21l-1.573,0.123c-0.142-0.621-0.34-1.072-0.599-1.354c-0.428-0.451-0.954-0.677-1.581-0.677
		c-0.505,0-0.946,0.141-1.327,0.422c-0.498,0.363-0.892,0.894-1.179,1.591c-0.286,0.697-0.437,1.69-0.447,2.979
		c0.381-0.58,0.847-1.011,1.396-1.292c0.55-0.281,1.128-0.422,1.731-0.422c1.055,0,1.953,0.388,2.693,1.165
		c0.741,0.777,1.112,1.78,1.112,3.01c0,0.809-0.174,1.56-0.522,2.254c-0.35,0.694-0.828,1.226-1.438,1.595s-1.301,0.554-2.074,0.554
		c-1.317,0-2.394-0.485-3.226-1.455c-0.832-0.97-1.248-2.568-1.248-4.794c0-2.49,0.46-4.301,1.38-5.432
		C53.959,5.493,55.04,5,56.399,5c1.014,0,1.844,0.284,2.492,0.853C59.539,6.422,59.927,7.208,60.056,8.21z M53.596,13.765
		c0,0.545,0.115,1.066,0.347,1.564c0.23,0.498,0.555,0.877,0.971,1.138c0.416,0.261,0.854,0.391,1.311,0.391
		c0.668,0,1.241-0.27,1.723-0.809s0.721-1.271,0.721-2.197c0-0.891-0.236-1.592-0.712-2.105c-0.475-0.513-1.072-0.769-1.793-0.769
		c-0.715,0-1.321,0.256-1.819,0.769C53.846,12.26,53.596,12.933,53.596,13.765z"/>
</g>
<polygon points="22.595,81.844 20.895,82.844 20.895,54.293 22.595,54.293 "/>
<polygon points="46.195,95.493 45.345,96.942 20.895,82.844 22.595,81.844 "/>
<polygon points="49.195,90.344 48.345,91.794 27.295,79.644 28.145,78.144 "/>
<polygon points="89.646,81.844 90.495,82.344 90.595,83.243 66.845,96.993 65.995,95.493 "/>
<polygon points="89.646,43.144 90.495,42.644 91.345,43.244 91.345,81.692 90.495,82.344 89.646,81.844 "/>
<rect x="83.695" y="46.094" width="1.701" height="32.8"/>
<polygon points="56.095,23.793 56.095,21.844 90.595,41.744 90.495,42.644 89.646,43.144 "/>
<polygon points="32.395,37.494 31.545,35.994 56.095,21.844 56.095,23.793 "/>
<polygon points="35.395,42.644 34.545,41.144 55.695,28.943 56.545,30.394 "/>
<g>
	<path d="M121.417,104.041V86.86h2.332l9.023,13.488V86.86h2.18v17.181h-2.332l-9.022-13.5v13.5H121.417z"/>
</g>
<g>
	<path d="M121.511,123.979v-17.181h2.272v7.056h8.93v-7.056h2.273v17.181h-2.273v-8.099h-8.93v8.099H121.511z"/>
</g>
<g>
	<path fill="#FF0000" d="M158.431,61.658c-0.656-0.24-1.144-0.583-1.459-1.028c-0.316-0.445-0.476-0.979-0.476-1.6
		c0-0.938,0.336-1.726,1.01-2.364c0.675-0.638,1.57-0.958,2.689-0.958c1.125,0,2.031,0.327,2.717,0.98
		c0.687,0.653,1.027,1.449,1.027,2.386c0,0.598-0.156,1.118-0.471,1.56c-0.313,0.442-0.789,0.784-1.429,1.024
		c0.791,0.258,1.395,0.674,1.808,1.248c0.412,0.574,0.618,1.26,0.618,2.057c0,1.102-0.389,2.027-1.168,2.777
		c-0.778,0.75-1.805,1.125-3.075,1.125c-1.271,0-2.298-0.376-3.076-1.13c-0.779-0.752-1.17-1.691-1.17-2.816
		c0-0.838,0.213-1.54,0.638-2.105S157.646,61.863,158.431,61.658z M157.604,64.928c0,0.451,0.105,0.888,0.319,1.31
		c0.215,0.422,0.531,0.749,0.953,0.98c0.422,0.23,0.877,0.348,1.363,0.348c0.756,0,1.379-0.243,1.871-0.729
		c0.492-0.486,0.738-1.104,0.738-1.854c0-0.762-0.253-1.392-0.761-1.89c-0.507-0.498-1.141-0.747-1.901-0.747
		c-0.744,0-1.361,0.246-1.852,0.738C157.846,63.575,157.604,64.189,157.604,64.928z M158.114,58.978
		c0,0.609,0.195,1.107,0.588,1.494c0.393,0.387,0.902,0.58,1.529,0.58c0.608,0,1.108-0.192,1.499-0.576
		c0.39-0.384,0.585-0.854,0.585-1.411c0-0.58-0.201-1.068-0.604-1.463c-0.401-0.395-0.9-0.593-1.499-0.593
		c-0.604,0-1.104,0.193-1.502,0.58C158.313,57.976,158.114,58.438,158.114,58.978z"/>
</g>
<g>
	<path d="M121.417,39.838v-17.18h2.332l9.023,13.488V22.658h2.18v17.18h-2.332l-9.022-13.5v13.5H121.417z"/>
</g>
<g>
	<path fill="#FF0000" d="M138.878,100.858l1.521-0.142c0.129,0.716,0.375,1.233,0.738,1.556c0.362,0.324,0.827,0.483,1.396,0.483
		c0.486,0,0.913-0.11,1.279-0.334c0.366-0.223,0.666-0.521,0.899-0.892c0.234-0.372,0.433-0.875,0.59-1.508
		c0.158-0.631,0.236-1.276,0.236-1.934c0-0.07-0.002-0.176-0.008-0.316c-0.316,0.504-0.749,0.914-1.297,1.227
		s-1.142,0.47-1.779,0.47c-1.065,0-1.969-0.387-2.707-1.159c-0.738-0.773-1.106-1.793-1.106-3.06c0-1.308,0.385-2.358,1.154-3.155
		c0.771-0.797,1.735-1.195,2.896-1.195c0.838,0,1.604,0.227,2.299,0.678s1.222,1.094,1.582,1.929s0.541,2.043,0.541,3.625
		c0,1.646-0.18,2.958-0.537,3.933c-0.357,0.976-0.889,1.719-1.595,2.229s-1.534,0.766-2.483,0.766c-1.008,0-1.83-0.281-2.469-0.84
		S139.007,101.872,138.878,100.858z M145.356,95.172c0-0.907-0.242-1.629-0.727-2.162c-0.483-0.532-1.064-0.8-1.745-0.8
		c-0.702,0-1.313,0.287-1.836,0.861c-0.521,0.574-0.782,1.318-0.782,2.231c0,0.82,0.248,1.487,0.742,2
		c0.495,0.513,1.106,0.77,1.833,0.77c0.732,0,1.334-0.257,1.807-0.77C145.12,96.79,145.356,96.08,145.356,95.172z"/>
</g>
<polygon points="118.545,90.544 118.045,92.192 90.595,83.243 90.495,82.344 91.345,81.692 "/>
<polygon points="150.495,62.494 152.595,62.494 136.245,84.993 134.896,83.993 "/>
<polygon points="135.694,42.144 137.095,41.144 152.595,62.494 150.495,62.494 "/>
<polygon points="130.896,45.644 132.245,44.644 144.896,61.994 143.495,62.994 "/>
<polygon points="91.345,43.244 90.495,42.644 90.595,41.744 118.045,32.793 118.545,34.443 "/>
<g>
	<path fill="#FF0000" d="M124.336,7.938V6.417h8.34v1.229c-0.82,0.873-1.633,2.033-2.438,3.48c-0.805,1.446-1.429,2.936-1.867,4.465
		c-0.316,1.078-0.519,2.259-0.605,3.542h-1.627c0.019-1.014,0.217-2.238,0.598-3.674c0.382-1.437,0.929-2.819,1.641-4.153
		c0.712-1.332,1.47-2.456,2.271-3.37L124.336,7.938L124.336,7.938z"/>
</g>
</svg>
