<!-- Generator: Adobe Illustrator 12.0.1, SVG Export Plug-In . SVG Version: 6.00 Build 51448)  -->
<svg xmlns:rdf="http://www.w3.org/1999/02/22-rdf-syntax-ns#" style="enable-background:new 0 0 173.443 156.534;" xmlns="http://www.w3.org/2000/svg" xml:space="preserve" height="156.534" viewBox="0 0 173.443 156.534" width="173.443" version="1.1" xmlns:cc="http://creativecommons.org/ns#" xmlns:dc="http://purl.org/dc/elements/1.1/"><metadata><rdf:RDF><cc:Work rdf:about=""><dc:format>image/svg+xml</dc:format><dc:type rdf:resource="http://purl.org/dc/dcmitype/StillImage"/><dc:title/></cc:Work></rdf:RDF></metadata>
<path d="m21.845525,77.09565,0-16.32765,2.16695,0,0,6.70985,8.44645,0,0-6.70985,2.16695,0,0,16.3286-2.16695,0,0-7.69025-8.44645,0,0,7.6893-2.16695,0,0,0z"/><path d="m38.207375,77.09565,0-16.32765,2.223,0,8.5538,12.8136,0-12.8136,2.0786,0,0,16.3286-2.223,0-8.5538-12.81455,0,12.81455-2.0786,0,0-0.00095z"/><path d="m70.999475,133.66815,0-16.3286,2.223,0,8.5538,12.8136,0-12.8136,2.0786,0,0,16.3286-2.223,0-8.5538-12.81455,0,12.81455-2.0786,0z"/><path d="m71.103025,152.62065,0-16.3286,2.16695,0,0,6.70985,8.44645,0,0-6.70985,2.16695,0,0,16.3286-2.16695,0,0-7.6893-8.44645,0,0,7.6893-2.16695,0z"/><path d="M44,79.21875v22.84375l-25.1875,14.5625,0.8125,1.375,24.375-14.03125v2.34375l2,1.15625-24.34375,14.03125,0.8125,1.4375,25.15625-14.53125,19.65625,11.3125,0.78125-1.40625-22.46875-12.96875v-26.125h-1.59375z" transform="translate(0,-1.3757658e-6)"/><path d="M73.8125,23v27.4375l-19.8125,11.40625,0.8125,1.4375,22.625-13.0625,31.8125,18.375v36.75l-22.5,13.03125,0.8125,1.375,22.59375-13.0625,26.125,8.5,0.53125-1.53125-25.90625-8.4375v-36.53125l25.90625-8.40625-0.53125-1.53125-26.125,8.5-29.0625-16.78125v-27.46875h-1.625v26.53125l-2.03125-1.1875-2,1.15625v-26.5h-1.625z" transform="translate(0,-1.3757658e-6)"/><path style="" d="m114.95692,72.251595,1.615,0,0,29.450005-1.615,0z"/><path d="m139.49352,126.44815,0-16.3286,2.223,0,8.5538,12.8136,0-12.8136,2.0786,0,0,16.3286-2.223,0-8.5538-12.81455,0,12.81455-2.0786,0z"/><path d="m139.59802,46.50565,0-16.3286,2.16695,0,0,6.70985,8.44645,0,0-6.70985,2.16695,0,0,16.3286-2.16695,0,0-7.6893-8.44645,0,0,7.6893-2.16695,0z"/><path d="m139.49352,65.45815,0-16.32765,2.223,0,8.5538,12.8136,0-12.8136,2.0786,0,0,16.3286-2.223,0-8.5538-12.81455,0,12.81455-2.0786,0,0-0.00095z"/><path d="M154.34375,66.65625l-1.28125,0.9375,14.0625,19.375-14.875,20.46875,1.28125,0.96875,15.5625-21.4375-14.75-20.3125z" transform="translate(0,-1.3757658e-6)"/><path style="" transform="matrix(0.95,0,0,0.95,4.336075,3.91335)" d="m152.244,106.484-1.35-1,13.45-18.549,0,0,1.349,1z"/><path d="m69.648575,12.5764c0-2.7094,0.7277-4.83075,2.1831-6.36405,1.4554-1.53235,3.3345-2.299,5.6354-2.299,1.50765,0,2.86615,0.36005,4.07645,1.08015s2.13275,1.72425,2.7683,3.01245c0.6346,1.2882,0.9519,2.7493,0.9519,4.3814,0,1.6549-0.3344,3.1369-1.00225,4.44315-0.6688,1.3072-1.615,2.29615-2.8405,2.9678s-2.54695,1.00795-3.9653,1.00795c-1.5371,0-2.9108-0.37145-4.1211-1.1134s-2.12705-1.7556-2.7512-3.04c-0.6232-1.2844-0.9348-2.64385-0.9348-4.07645zm2.2268,0.02755c0,1.9665,0.52915,3.51595,1.58745,4.64835s2.3864,1.69765,3.9824,1.69765c1.6264,0,2.96495-0.5719,4.0166-1.71475,1.0507-1.14285,1.57605-2.7645,1.57605-4.86495,0-1.3281-0.2242-2.48805-0.67355-3.4789s-1.10675-1.7594-1.9722-2.3047-1.83635-0.81795-2.9127-0.81795c-1.5295,0-2.8462,0.52535-3.94915,1.5751s-1.6549,2.8044-1.6549,5.26015z"/><path d="m4.336075,125.7214c0-2.7094,0.7277-4.83075,2.1831-6.36405,1.4554-1.53235,3.3345-2.299,5.63635-2.299,1.50765,0,2.86615,0.36005,4.07645,1.08015s2.13275,1.72425,2.7683,3.01245c0.6346,1.2882,0.9519,2.7493,0.9519,4.3814,0,1.6549-0.3344,3.1369-1.00225,4.44315-0.6688,1.3072-1.615,2.29615-2.8405,2.9678s-2.54695,1.00795-3.9653,1.00795c-1.5371,0-2.9108-0.37145-4.1211-1.1134s-2.12705-1.7556-2.7512-3.04c-0.62415-1.28535-0.93575-2.64385-0.93575-4.07645zm2.2268,0.0275c0,1.9665,0.52915,3.51595,1.58745,4.64835s2.3864,1.69765,3.9824,1.69765c1.6264,0,2.96495-0.5719,4.0166-1.71475,1.0507-1.14285,1.57605-2.7645,1.57605-4.86495,0-1.3281-0.2242-2.48805-0.67355-3.4789s-1.10675-1.7594-1.9722-2.3047-1.83635-0.81795-2.9127-0.81795c-1.5295,0-2.8462,0.52535-3.94915,1.5751s-1.6549,2.80345-1.6549,5.26015z"/>
</svg>
